<svg xmlns="http://www.w3.org/2000/svg" xmlns:xlink="http://www.w3.org/1999/xlink" width="500" zoomAndPan="magnify" viewBox="0 0 375 374.999991" height="500" preserveAspectRatio="xMidYMid meet" version="1.0"><defs><g/><clipPath id="d527838c28"><path d="M 0.597656 13.117188 L 27.996094 13.117188 L 27.996094 40.515625 L 0.597656 40.515625 Z M 0.597656 13.117188 " clip-rule="nonzero"/></clipPath><clipPath id="6958fec82e"><path d="M 26.652344 13.117188 L 39.421875 13.117188 L 39.421875 40.648438 L 26.652344 40.648438 Z M 26.652344 13.117188 " clip-rule="nonzero"/></clipPath><clipPath id="228b5b77ee"><path d="M 0.652344 0.117188 L 13.421875 0.117188 L 13.421875 27.648438 L 0.652344 27.648438 Z M 0.652344 0.117188 " clip-rule="nonzero"/></clipPath><clipPath id="ee7e62804d"><rect x="0" width="14" y="0" height="28"/></clipPath><clipPath id="3d532cc85d"><path d="M 0.59375 0.355469 L 26.648438 0.355469 L 26.648438 13.121094 L 0.59375 13.121094 Z M 0.59375 0.355469 " clip-rule="nonzero"/></clipPath><clipPath id="c47f9b7d3a"><path d="M 0.59375 0.355469 L 26.648438 0.355469 L 26.648438 13.121094 L 0.59375 13.121094 Z M 0.59375 0.355469 " clip-rule="nonzero"/></clipPath><clipPath id="71c89bd2de"><rect x="0" width="27" y="0" height="14"/></clipPath><clipPath id="02ea2b9122"><path d="M 30.855469 0.351562 L 39.417969 0.351562 L 39.417969 8.914062 L 30.855469 8.914062 Z M 30.855469 0.351562 " clip-rule="nonzero"/></clipPath><clipPath id="fccc8aa4ce"><path d="M 0.855469 0.351562 L 9.417969 0.351562 L 9.417969 8.914062 L 0.855469 8.914062 Z M 0.855469 0.351562 " clip-rule="nonzero"/></clipPath><clipPath id="05c41f2ad4"><rect x="0" width="10" y="0" height="9"/></clipPath><clipPath id="eb3d74999d"><rect x="0" width="40" y="0" height="41"/></clipPath></defs><g transform="matrix(1, 0, 0, 1, 63, 167)"><g clip-path="url(#eb3d74999d)"><g clip-path="url(#d527838c28)"><path fill="#ffffff" d="M 28.117188 25.375 L 28.117188 13.117188 C 12.917969 13.117188 0.597656 25.441406 0.597656 40.640625 L 12.851562 40.640625 C 12.851562 32.207031 19.6875 25.375 28.117188 25.375 Z M 28.117188 25.375 " fill-opacity="1" fill-rule="nonzero"/></g><g clip-path="url(#6958fec82e)"><g transform="matrix(1, 0, 0, 1, 26, 13)"><g clip-path="url(#ee7e62804d)"><g clip-path="url(#228b5b77ee)"><path fill="#5ce1e6" d="M 0.652344 0.117188 L 13.421875 0.117188 L 13.421875 27.644531 L 0.652344 27.644531 Z M 0.652344 0.117188 " fill-opacity="1" fill-rule="nonzero"/></g></g></g></g><g clip-path="url(#3d532cc85d)"><g transform="matrix(1, 0, 0, 1, -0.000000000000007105, 0)"><g clip-path="url(#71c89bd2de)"><g clip-path="url(#c47f9b7d3a)"><path fill="#5ce1e6" d="M 26.648438 0.355469 L 26.648438 13.121094 L 0.566406 13.121094 L 0.566406 0.355469 Z M 26.648438 0.355469 " fill-opacity="1" fill-rule="nonzero"/></g></g></g></g><g clip-path="url(#02ea2b9122)"><g transform="matrix(1, 0, 0, 1, 30, 0)"><g clip-path="url(#05c41f2ad4)"><g clip-path="url(#fccc8aa4ce)"><path fill="#5ce1e6" d="M 9.417969 0.351562 L 9.417969 8.914062 L 0.855469 8.914062 L 0.855469 0.351562 Z M 9.417969 0.351562 " fill-opacity="1" fill-rule="nonzero"/></g></g></g></g></g></g><g fill="#ffffff" fill-opacity="1"><g transform="translate(118.194783, 204.749987)"><g><path d="M 27.734375 0 L 24.984375 -7.703125 L 9.828125 -7.703125 L 7.109375 0 L 1.09375 0 L 13.859375 -34.6875 L 20.9375 -34.6875 L 33.71875 0 Z M 11.609375 -12.703125 L 23.234375 -12.703125 L 17.421875 -29.09375 Z M 11.609375 -12.703125 "/></g></g></g><g fill="#ffffff" fill-opacity="1"><g transform="translate(151.923094, 204.749987)"><g><path d="M 16.984375 -24.9375 C 18.804688 -24.9375 20.375 -24.601562 21.6875 -23.9375 C 23.007812 -23.28125 24.019531 -22.320312 24.71875 -21.0625 C 25.425781 -19.8125 25.78125 -18.28125 25.78125 -16.46875 L 25.78125 0 L 20.140625 0 L 20.140625 -15.25 C 20.140625 -16.476562 19.914062 -17.46875 19.46875 -18.21875 C 19.019531 -18.96875 18.429688 -19.507812 17.703125 -19.84375 C 16.972656 -20.1875 16.179688 -20.359375 15.328125 -20.359375 C 14.304688 -20.359375 13.351562 -20.144531 12.46875 -19.71875 C 11.59375 -19.300781 10.890625 -18.632812 10.359375 -17.71875 C 9.835938 -16.800781 9.570312 -15.582031 9.5625 -14.0625 L 9.5625 0 L 3.96875 0 L 3.96875 -24.46875 L 9.5625 -24.46875 L 9.5625 -21.578125 C 10.375 -22.628906 11.414062 -23.453125 12.6875 -24.046875 C 13.957031 -24.640625 15.390625 -24.9375 16.984375 -24.9375 Z M 16.984375 -24.9375 "/></g></g></g><g fill="#ffffff" fill-opacity="1"><g transform="translate(180.082424, 204.749987)"><g><path d="M 9.734375 0.46875 C 8.742188 0.46875 7.789062 0.335938 6.875 0.078125 C 5.96875 -0.171875 5.160156 -0.554688 4.453125 -1.078125 C 3.753906 -1.609375 3.203125 -2.296875 2.796875 -3.140625 C 2.390625 -3.992188 2.1875 -5.015625 2.1875 -6.203125 C 2.1875 -7.515625 2.429688 -8.613281 2.921875 -9.5 C 3.421875 -10.394531 4.097656 -11.128906 4.953125 -11.703125 C 5.816406 -12.285156 6.8125 -12.753906 7.9375 -13.109375 C 9.0625 -13.460938 10.265625 -13.753906 11.546875 -13.984375 L 15.25 -14.671875 C 16.0625 -14.828125 16.640625 -15.085938 16.984375 -15.453125 C 17.335938 -15.816406 17.515625 -16.289062 17.515625 -16.875 C 17.515625 -17.882812 17.28125 -18.679688 16.8125 -19.265625 C 16.351562 -19.847656 15.757812 -20.265625 15.03125 -20.515625 C 14.300781 -20.765625 13.53125 -20.890625 12.71875 -20.890625 C 11.84375 -20.890625 11.03125 -20.75 10.28125 -20.46875 C 9.539062 -20.1875 8.929688 -19.734375 8.453125 -19.109375 C 7.972656 -18.484375 7.671875 -17.644531 7.546875 -16.59375 L 2.5 -17.515625 C 2.925781 -20.046875 4.035156 -21.910156 5.828125 -23.109375 C 7.617188 -24.304688 10.03125 -24.90625 13.0625 -24.90625 C 14.28125 -24.90625 15.472656 -24.773438 16.640625 -24.515625 C 17.804688 -24.253906 18.859375 -23.800781 19.796875 -23.15625 C 20.734375 -22.519531 21.484375 -21.640625 22.046875 -20.515625 C 22.609375 -19.398438 22.890625 -17.984375 22.890625 -16.265625 L 22.890625 -6.78125 C 22.890625 -5.632812 23.0625 -4.851562 23.40625 -4.4375 C 23.757812 -4.019531 24.359375 -3.8125 25.203125 -3.8125 L 25.59375 -3.8125 L 25.59375 0 L 22.9375 0 C 21.5625 0 20.457031 -0.253906 19.625 -0.765625 C 18.800781 -1.273438 18.25 -2.097656 17.96875 -3.234375 L 17.703125 -3.234375 C 17.078125 -2.335938 16.328125 -1.617188 15.453125 -1.078125 C 14.585938 -0.535156 13.664062 -0.144531 12.6875 0.09375 C 11.707031 0.34375 10.722656 0.46875 9.734375 0.46875 Z M 11.046875 -3.9375 C 12.328125 -3.9375 13.476562 -4.234375 14.5 -4.828125 C 15.53125 -5.429688 16.347656 -6.28125 16.953125 -7.375 C 17.566406 -8.476562 17.875 -9.773438 17.875 -11.265625 L 11.625 -9.875 C 10.34375 -9.632812 9.351562 -9.269531 8.65625 -8.78125 C 7.957031 -8.289062 7.609375 -7.585938 7.609375 -6.671875 C 7.609375 -5.710938 7.941406 -5.015625 8.609375 -4.578125 C 9.273438 -4.148438 10.085938 -3.9375 11.046875 -3.9375 Z M 11.046875 -3.9375 "/></g></g></g><g fill="#ffffff" fill-opacity="1"><g transform="translate(206.028754, 204.749987)"><g><path d="M 12.421875 0 C 10.234375 0 8.519531 -0.617188 7.28125 -1.859375 C 6.039062 -3.097656 5.421875 -4.863281 5.421875 -7.15625 L 5.421875 -20.09375 L 0.53125 -20.09375 L 0.53125 -24.46875 L 2.21875 -24.46875 C 3.507812 -24.46875 4.457031 -24.769531 5.0625 -25.375 C 5.675781 -25.988281 5.984375 -27.085938 5.984375 -28.671875 L 5.984375 -32.46875 L 11.09375 -32.46875 L 11.09375 -24.46875 L 16.421875 -24.46875 L 16.421875 -20.09375 L 11.09375 -20.09375 L 11.09375 -7.734375 C 11.09375 -6.597656 11.375 -5.742188 11.9375 -5.171875 C 12.507812 -4.609375 13.265625 -4.328125 14.203125 -4.328125 L 16.421875 -4.328125 L 16.421875 0 Z M 12.421875 0 "/></g></g></g><g fill="#ffffff" fill-opacity="1"><g transform="translate(223.147398, 204.749987)"><g><path d="M 26.171875 -12.640625 L 26.09375 -11.234375 L 7.484375 -11.234375 C 7.566406 -9.617188 7.9375 -8.28125 8.59375 -7.21875 C 9.25 -6.15625 10.097656 -5.359375 11.140625 -4.828125 C 12.191406 -4.296875 13.332031 -4.03125 14.5625 -4.03125 C 15.925781 -4.03125 17.140625 -4.363281 18.203125 -5.03125 C 19.265625 -5.695312 20.070312 -6.644531 20.625 -7.875 L 25.734375 -7 C 25.160156 -5.425781 24.332031 -4.082031 23.25 -2.96875 C 22.164062 -1.851562 20.890625 -1 19.421875 -0.40625 C 17.953125 0.1875 16.351562 0.484375 14.625 0.484375 C 12.125 0.484375 9.925781 -0.015625 8.03125 -1.015625 C 6.132812 -2.023438 4.65625 -3.476562 3.59375 -5.375 C 2.53125 -7.269531 2 -9.554688 2 -12.234375 C 2 -14.242188 2.304688 -16.035156 2.921875 -17.609375 C 3.535156 -19.179688 4.394531 -20.515625 5.5 -21.609375 C 6.613281 -22.703125 7.929688 -23.53125 9.453125 -24.09375 C 10.984375 -24.664062 12.648438 -24.953125 14.453125 -24.953125 C 16.140625 -24.953125 17.695312 -24.703125 19.125 -24.203125 C 20.550781 -23.710938 21.785156 -22.957031 22.828125 -21.9375 C 23.867188 -20.914062 24.6875 -19.632812 25.28125 -18.09375 C 25.875 -16.550781 26.171875 -14.734375 26.171875 -12.640625 Z M 14.46875 -20.796875 C 12.75 -20.796875 11.289062 -20.363281 10.09375 -19.5 C 8.90625 -18.644531 8.117188 -17.285156 7.734375 -15.421875 L 20.546875 -15.421875 C 20.335938 -17.234375 19.675781 -18.582031 18.5625 -19.46875 C 17.457031 -20.351562 16.09375 -20.796875 14.46875 -20.796875 Z M 14.46875 -20.796875 "/></g></g></g><g fill="#ffffff" fill-opacity="1"><g transform="translate(250.212387, 204.749987)"><g><path d="M 14.5625 0.4375 C 12.738281 0.4375 11.050781 0.140625 9.5 -0.453125 C 7.945312 -1.054688 6.601562 -1.914062 5.46875 -3.03125 C 4.332031 -4.15625 3.453125 -5.492188 2.828125 -7.046875 C 2.203125 -8.609375 1.890625 -10.347656 1.890625 -12.265625 C 1.890625 -14.160156 2.203125 -15.882812 2.828125 -17.4375 C 3.453125 -19 4.332031 -20.335938 5.46875 -21.453125 C 6.601562 -22.566406 7.945312 -23.425781 9.5 -24.03125 C 11.050781 -24.632812 12.738281 -24.9375 14.5625 -24.9375 C 16.507812 -24.9375 18.273438 -24.601562 19.859375 -23.9375 C 21.441406 -23.269531 22.78125 -22.300781 23.875 -21.03125 C 24.96875 -19.757812 25.734375 -18.210938 26.171875 -16.390625 L 20.96875 -15.71875 C 20.5 -17.269531 19.691406 -18.441406 18.546875 -19.234375 C 17.398438 -20.035156 16.054688 -20.4375 14.515625 -20.4375 C 13.160156 -20.4375 11.953125 -20.097656 10.890625 -19.421875 C 9.835938 -18.742188 9.003906 -17.789062 8.390625 -16.5625 C 7.785156 -15.34375 7.484375 -13.910156 7.484375 -12.265625 C 7.484375 -10.617188 7.785156 -9.179688 8.390625 -7.953125 C 9.003906 -6.722656 9.835938 -5.769531 10.890625 -5.09375 C 11.953125 -4.425781 13.160156 -4.09375 14.515625 -4.09375 C 16.054688 -4.09375 17.398438 -4.484375 18.546875 -5.265625 C 19.691406 -6.054688 20.5 -7.226562 20.96875 -8.78125 L 26.171875 -8.125 C 25.734375 -6.3125 24.960938 -4.765625 23.859375 -3.484375 C 22.753906 -2.210938 21.40625 -1.238281 19.8125 -0.5625 C 18.226562 0.101562 16.476562 0.4375 14.5625 0.4375 Z M 14.5625 0.4375 "/></g></g></g><g fill="#ffffff" fill-opacity="1"><g transform="translate(276.936915, 204.749987)"><g><path d="M 15.9375 -13.203125 L 26.796875 0 L 19.84375 0 L 11.28125 -10.78125 L 9.609375 -10.78125 L 9.609375 0 L 3.96875 0 L 3.96875 -37.359375 L 9.609375 -37.359375 L 9.609375 -14.8125 L 11.140625 -14.8125 L 19.265625 -24.46875 L 25.703125 -24.46875 Z M 15.9375 -13.203125 "/></g></g></g></svg>